<svg xmlns="http://www.w3.org/2000/svg" width="220" height="220" viewBox="0 0 220 220" fill="none">
  <rect width="220" height="220" fill="#000000"/>
  <g opacity="0.18" fill="#ffffff">
    <circle cx="12" cy="18" r="1"/>
    <circle cx="37" cy="44" r="1"/>
    <circle cx="68" cy="13" r="1"/>
    <circle cx="92" cy="57" r="1"/>
    <circle cx="128" cy="24" r="1"/>
    <circle cx="149" cy="64" r="1"/>
    <circle cx="177" cy="41" r="1"/>
    <circle cx="206" cy="11" r="1"/>
    <circle cx="14" cy="89" r="1"/>
    <circle cx="39" cy="104" r="1"/>
    <circle cx="73" cy="84" r="1"/>
    <circle cx="103" cy="112" r="1"/>
    <circle cx="132" cy="95" r="1"/>
    <circle cx="161" cy="116" r="1"/>
    <circle cx="186" cy="88" r="1"/>
    <circle cx="211" cy="101" r="1"/>
    <circle cx="21" cy="147" r="1"/>
    <circle cx="57" cy="132" r="1"/>
    <circle cx="84" cy="161" r="1"/>
    <circle cx="113" cy="138" r="1"/>
    <circle cx="146" cy="154" r="1"/>
    <circle cx="172" cy="131" r="1"/>
    <circle cx="201" cy="167" r="1"/>
    <circle cx="17" cy="201" r="1"/>
    <circle cx="52" cy="184" r="1"/>
    <circle cx="79" cy="211" r="1"/>
    <circle cx="108" cy="191" r="1"/>
    <circle cx="139" cy="214" r="1"/>
    <circle cx="166" cy="186" r="1"/>
    <circle cx="198" cy="205" r="1"/>
  </g>
</svg>
